<svg xmlns="http://www.w3.org/2000/svg" width="210" viewBox="0 0 210 280" height="280"><path d="m105 279.59c-57.39 0-104.089996-45.78-104.089996-102.07 0-10.01 1.449996-15.99 4.759996-27.23 1.81-6.13 4.87-13.22 8.28-20.98 2.91-6.62 6.08-13.81 8.7-21.38 5.91-17.11 11.34-26.22 11.57-26.6l6.82-11.35 29.6 22.51 47.58-92.089998 10.98 18.089998s14.48 23.85 32.44 57.1c6.25 11.57 14.5 23.9 21.14 33.81 3.24 4.84 6.11 9.12 8.21 12.52 6.57 10.55 11.38 19.47 15.1 31.23 2.65 8.42 3 17.04 3 24.37 0 56.28-46.7 102.07-104.09 102.07zm-56.16-173.83c-1.16 2.84-2.44 6.15-3.76 9.95-2.84 8.2-6.25 15.97-9.39 23.16-2.95 6.71-5.67 12.8-7.23 18.12-3.2 10.86-3.8 14.12-3.8 20.53 0 43.19 36.04 78.32 80.34 78.32s80.34-35.13 80.34-78.32c0-5.52-.22-11.87-1.91-17.22-2.98-9.42-6.88-16.6-12.63-25.84-1.99-3.21-4.7-7.27-7.76-11.85-6.92-10.33-15.52-23.19-22.3-35.73-8.06-14.93-15.41-27.93-21.01-37.66l-40.97 79.29-29.91-22.75z"></path></svg>