<svg viewBox="0 0 572.8 574" xmlns="http://www.w3.org/2000/svg" id="Layer_1" version="1.1">
  <style type="text/css">
    .st0{fill:#FFFFFF;}
  </style>
  <path d="M285.4,574C127.4,574-1.2,445.3-1.2,287S127.4,0,285.4,0C443.5,0,572,128.8,572,287S443.5,574,285.4,574z
    M285.4,1.2C128.1,1.2,0,129.4,0,287s128,285.8,285.4,285.8c157.4,0,285.4-128.2,285.4-285.8S442.8,1.2,285.4,1.2z" class="st0"></path>
  <path d="M285.4,574c-81.4,0-147.7-128.8-147.7-287S204,0,285.4,0s147.7,128.8,147.7,287S366.9,574,285.4,574z
    M285.4,1.2c-80.8,0-146.5,128.2-146.5,285.8s65.7,285.8,146.5,285.8S431.9,444.6,431.9,287S366.2,1.2,285.4,1.2z" class="st0"></path>
  <path d="M285.4,574c-81.4,0-147.7-128.8-147.7-287S204,0,285.4,0s147.7,128.8,147.7,287S366.9,574,285.4,574z
    M285.4,1.2c-80.8,0-146.5,128.2-146.5,285.8s65.7,285.8,146.5,285.8S431.9,444.6,431.9,287S366.2,1.2,285.4,1.2z" class="st0"></path>
  <path d="M223.4,567.2c-47.2,0-85.6-125.7-85.6-280.2S176.2,6.8,223.4,6.8c47.2,0,85.6,125.7,85.6,280.2
    S270.6,567.2,223.4,567.2z M223.4,8c-46.6,0-84.5,125.2-84.5,279s37.9,279,84.5,279s84.5-125.2,84.5-279S270,8,223.4,8z" class="st0"></path>
  <path d="M342.1,567.2c-47.2,0-85.6-125.7-85.6-280.2S294.9,6.8,342.1,6.8c47.2,0,85.6,125.7,85.6,280.2
    S389.4,567.2,342.1,567.2z M342.1,8c-46.6,0-84.5,125.2-84.5,279s37.9,279,84.5,279c46.6,0,84.5-125.2,84.5-279S388.7,8,342.1,8z" class="st0"></path>
  <path d="M285.8,367.5c-158.2,0-287-38.5-287-85.8c0-47.3,128.7-85.8,287-85.8c76.6,0,148.5,8.9,202.7,25
    c54.4,16.2,84.3,37.8,84.3,60.8c0,23-29.9,44.6-84.3,60.8C434.4,358.6,362.4,367.5,285.8,367.5z M285.8,197.2
    c-157.6,0-285.8,37.9-285.8,84.6s128.2,84.6,285.8,84.6c157.6,0,285.8-37.9,285.8-84.6S443.4,197.2,285.8,197.2z" class="st0"></path>
  <path d="M372,554.6c-71.5,0-163.3-82.5-220.4-205C84.8,206.1,90.5,61.4,164.3,26.9c73.8-34.5,188.2,54.2,255,197.6
    c66.8,143.4,61.1,288.2-12.7,322.6C395.8,552.1,384.2,554.6,372,554.6z M199,20.6c-12.1,0-23.6,2.4-34.2,7.3
    c-73.2,34.2-78.7,178.2-12.1,321c66.5,142.8,180.2,231.2,253.4,197c73.2-34.2,78.7-178.2,12.1-321C361.3,102.9,270,20.6,199,20.6z" class="st0"></path>
  <path d="M423.3,503.6c-15.3,0-32-2-49.9-6.1c-59.3-13.5-124.3-48-182.9-97.3C131.9,351.1,86.7,293,63.1,236.9
    c-23.6-56.3-22.6-104,2.8-134.3C91.3,72.2,138,63,197.5,76.5c59.3,13.5,124.3,48,182.9,97.3C501.4,275.4,557.3,409,505,471.5
    C487.2,492.7,459,503.6,423.3,503.6z M147.6,71.6c-35.4,0-63.3,10.8-80.8,31.7c-25.1,29.9-26,77.2-2.6,133.1
    c23.5,56,68.6,113.9,127.1,163c58.4,49.1,123.2,83.6,182.4,97c59,13.4,105.3,4.3,130.4-25.7c51.9-62-3.9-194.8-124.5-296.1
    c-58.5-49.1-123.2-83.6-182.4-97C179.5,73.6,162.8,71.6,147.6,71.6z" class="st0"></path>
  <path d="M378.8,448c-40.9,0-85.7-5.8-131.6-18.1c-73.9-19.8-139.4-53.3-184.5-94.2c-45.2-41-64.4-84.7-54.2-122.9
    C29.7,134,171,103.2,323.6,144.2c73.9,19.8,139.4,53.3,184.5,94.2c45.2,41,64.4,84.7,54.2,122.9C547.5,416.4,474,448,378.8,448z
    M191.9,127.2c-94.5,0-167.6,31.3-182.2,85.8c-10.1,37.8,9,81,53.8,121.7c44.9,40.8,110.3,74.2,184,93.9
    c152,40.8,292.7,10.4,313.6-67.7c10.1-37.8-9-81-53.8-121.7c-44.9-40.8-110.3-74.2-184-93.9C277.5,133,232.7,127.2,191.9,127.2z" class="st0"></path>
  <path d="M218.5,440.9C104,440.9,14.4,400.7,3.2,336.9c-14.1-80.3,101-168,256.6-195.5c155.6-27.5,293.8,15.5,307.9,95.8
    c14.1,80.3-101,168-256.6,195.5C279.2,438.3,248,440.9,218.5,440.9z M259.9,142l0.1,0.6C105,169.9-9.7,257,4.3,336.6
    c11.1,63.3,100.2,103.1,214,103.1c29.5,0,60.6-2.7,92.5-8.3c155-27.4,269.7-114.4,255.6-194.1S415,115.2,260,142.5L259.9,142z" class="st0"></path>
  <path d="M146.3,491.3c-42.7,0-76.9-12.9-95.7-39.7c-46.7-66.8,20.6-195,150.1-285.8l0.3,0.5l-0.3-0.5
    c129.5-90.8,272.8-110.3,319.5-43.5c46.7,66.8-20.6,195-150.1,285.8C292.6,462.5,210.1,491.3,146.3,491.3z M424.6,83.8
    c-63.5,0-145.8,28.8-223.1,83C72.5,257.2,5.3,384.7,51.6,450.9c18.5,26.5,52.4,39.2,94.7,39.2c63.5,0,145.8-28.8,223.1-83
    c128.9-90.4,196.1-217.8,149.8-284.1C500.7,96.6,466.8,83.8,424.6,83.8z" class="st0"></path>
  <path d="M184.8,546.5c-15.7,0-30-3.6-42.6-10.9c-70.5-40.8-63.6-185.4,15.4-322.5c38.2-66.3,87.5-121,138.6-154
    c51.3-33.1,98.3-40.4,132.6-20.6c70.5,40.8,63.6,185.4-15.4,322.5c-38.2,66.3-87.5,121-138.6,154
    C242.3,535.9,211.6,546.5,184.8,546.5z M386.1,28.7c-26.6,0-57.1,10.6-89.3,31.3c-51,32.9-100.1,87.4-138.2,153.6
    c-78.7,136.5-85.8,280.4-15.9,320.9c33.8,19.6,80.5,12.3,131.3-20.6c51-32.9,100.1-87.4,138.2-153.6
    C491,223.9,498.1,79.9,428.2,39.5C415.7,32.3,401.6,28.7,386.1,28.7z" class="st0"></path>
</svg>
