<svg xmlns="http://www.w3.org/2000/svg" fill="none" viewBox="0 0 14 15" height="15" width="14">
<g id="Frame">
<g id="Group">
<path fill="white" d="M5.71875 5.70019C5.71875 6.18295 6.14581 6.3872 6.7214 6.4986V4.82751C6.14581 4.90179 5.71875 5.236 5.71875 5.70019Z" id="Vector"></path>
<path fill="white" d="M7.53906 7.53845V9.32095C8.15179 9.22811 8.54172 8.87532 8.54172 8.35543C8.54172 7.87267 8.17036 7.66843 7.53906 7.53845Z" id="Vector_2"></path>
<path fill="white" d="M7 0C3.13793 0 0 3.13793 0 7C0 10.8621 3.13793 14 7 14C10.8621 14 14 10.8621 14 7C14 3.13793 10.8806 0 7 0ZM7 13.1645C3.60212 13.1645 0.835544 10.3979 0.835544 7C0.835544 3.60212 3.60212 0.835544 7 0.835544C10.3979 0.835544 13.1645 3.60212 13.1645 7C13.1645 10.3979 10.3979 13.1645 7 13.1645Z" id="Vector_3"></path>
<path fill="white" d="M7.00092 1.48535C3.97439 1.48535 1.48633 3.97342 1.48633 6.99994C1.48633 10.045 3.95582 12.5145 7.00092 12.5145C10.046 12.5145 12.5155 10.045 12.5155 6.99994C12.5155 3.97342 10.046 1.48535 7.00092 1.48535ZM7.53938 10.1936V10.8991H6.7224V10.1936C5.66405 10.0636 4.92134 9.488 4.56856 8.72673L5.44124 8.28111C5.68261 8.801 6.14681 9.15379 6.7224 9.28376V7.40843C5.66405 7.25989 4.7728 6.81426 4.7728 5.70021C4.7728 4.79039 5.58978 4.04769 6.70383 3.93628V3.24928H7.53938V3.97342C8.35635 4.08482 8.93195 4.49331 9.2476 4.99464L8.44919 5.55166C8.26352 5.25458 7.94787 5.0132 7.53938 4.88323V6.62859C8.672 6.77713 9.50755 7.18562 9.50755 8.35538C9.50755 9.26519 8.82055 10.0636 7.53938 10.1936Z" id="Vector_4"></path>
</g>
</g>
</svg>
