<svg xmlns="http://www.w3.org/2000/svg" fill="none" viewBox="0 0 11 16" height="16" width="11">
<g clip-path="url(#clip0_634_847)" id="Frame">
<path fill="#323232" d="M10.9222 6.20625C10.7836 5.88973 10.4912 5.69226 10.1578 5.69226H7.14471L8.67984 1.17402C8.81664 0.771518 8.66643 0.339725 8.31327 0.123356C7.95296 -0.0967923 7.51396 -0.0183704 7.24485 0.314214L0.931757 8.13468C0.71986 8.3964 0.673368 8.75355 0.809268 9.06535C0.94785 9.38187 1.24111 9.57934 1.57371 9.57934H4.58675L3.05162 14.0976C2.91482 14.5001 3.06592 14.9319 3.41819 15.1482C3.55051 15.2295 3.69893 15.272 3.84824 15.272C4.09232 15.272 4.32479 15.1577 4.48661 14.9574L10.8006 7.13692C11.0116 6.8752 11.0581 6.51805 10.9222 6.20625ZM5.31364 11.71L6.03248 9.5954C6.14513 9.26376 6.09774 8.89339 5.90552 8.60426C5.71061 8.31136 5.39053 8.13657 5.04988 8.13657H2.72528L6.41872 3.56164L5.69988 5.67714C5.58722 6.00878 5.63461 6.37916 5.82684 6.66734C6.02175 6.96024 6.34183 7.13503 6.68247 7.13503H9.00618L5.31364 11.71Z" id="Vector"></path>
</g>
<defs>
<clipPath id="clip0_634_847">
<rect fill="white" height="16" width="11"></rect>
</clipPath>
</defs>
</svg>
