<svg xmlns="http://www.w3.org/2000/svg" fill="none" viewBox="0 0 10 15" height="15" width="10">
<g clip-path="url(#clip0_634_851)" id="Frame">
<path fill="#323232" d="M9.86188 8.86621C9.67885 8.24022 9.43041 7.78146 9.19107 7.36563C9.1008 7.20824 8.98154 7.01597 8.84407 6.7924L8.82999 6.77004C8.56001 6.33543 8.19065 5.73895 7.91985 5.19792C7.20763 3.77514 6.62047 2.71453 6.50701 2.51064L5.89831 1.42857L3.79065 5.83285L2.51281 4.78208L2.13351 5.46352C2.09045 5.54221 1.86602 5.97057 1.6184 6.73785C1.50908 7.07946 1.37575 7.40766 1.24655 7.72602L1.24407 7.73228C1.09997 8.08641 0.964152 8.42086 0.878852 8.73475C0.730612 9.27847 0.666016 9.56821 0.666016 10.0556C0.666016 12.7822 2.7596 15 5.33268 15C7.90577 15 9.99935 12.7822 9.99935 10.0556C9.99935 9.69967 9.98361 9.28026 9.86188 8.86621ZM5.97947 4.34926C6.24614 4.85452 6.50949 5.36515 6.76291 5.8713C7.05608 6.45794 7.42626 7.0571 7.7244 7.53822L7.73682 7.55879C7.87678 7.78325 7.99024 7.96658 8.07388 8.11324C8.31819 8.53712 8.48382 8.86621 8.60805 9.29367C8.67513 9.5226 8.68424 9.80698 8.68424 10.0556C8.68424 11.9997 7.1803 13.5808 5.33185 13.5808C3.48341 13.5808 1.97947 11.9997 1.97947 10.0556C1.97947 9.77032 2.00349 9.6326 2.13848 9.13539C2.20059 8.90914 2.31985 8.61403 2.44655 8.30282L2.45069 8.29209C2.5832 7.96568 2.7331 7.59635 2.85898 7.20376C2.88879 7.10987 2.92026 7.01776 2.95173 6.92833L4.23869 7.98536" id="Vector"></path>
</g>
<defs>
<clipPath id="clip0_634_851">
<rect fill="white" height="15" width="10"></rect>
</clipPath>
</defs>
</svg>
