<svg xmlns="http://www.w3.org/2000/svg" fill="none" viewBox="0 0 15 10" height="10" width="15">
<g clip-path="url(#clip0_634_643)" id="Frame">
<g id="Group">
<g id="Group_2">
<g id="Group_3">
<path fill="white" d="M12.8054 10L2.85068 9.97788C1.26697 9.84513 0 8.49557 0 6.88053C0 5.53097 0.859728 4.35841 2.1267 3.93805C2.23982 1.74779 4.0724 0 6.31222 0C8.64253 0 10.5204 1.88053 10.5204 4.18142V4.20354C11.3348 4.40266 12.0136 4.93363 12.3982 5.66372C13.7104 5.44248 15 6.4823 15 7.80973C15 9.02655 14.0045 10 12.8054 10ZM3.93665 8.93805H12.7828C13.3937 8.93805 13.8914 8.4292 13.8914 7.80973C13.8914 7.0354 13.009 6.4823 12.3077 6.79204L11.7647 7.05752L11.5837 6.4823C11.3575 5.75221 10.6787 5.24336 9.9095 5.17699L9.32127 5.13274L9.38914 4.55752C9.41176 4.42478 9.41176 4.29204 9.41176 4.15929C9.41176 2.45575 8.00905 1.06195 6.28959 1.06195C4.57014 1.06195 3.16742 2.45575 3.16742 4.15929V4.60177L2.76018 4.86726C1.78733 5.04425 1.08597 5.90708 1.08597 6.88053C1.08597 8.07522 2.17195 9.02655 3.32579 8.91593L3.93665 8.93805Z" id="Vector"></path>
</g>
</g>
</g>
</g>
<defs>
<clipPath id="clip0_634_643">
<rect fill="white" height="10" width="15"></rect>
</clipPath>
</defs>
</svg>
