<svg xmlns="http://www.w3.org/2000/svg" fill="none" viewBox="0 0 14 12" height="12" width="14">
<g clip-path="url(#clip0_634_650)" id="Frame">
<path fill="white" d="M13.5501 4.72159H12.9098C13.0309 4.36364 13.1001 3.98864 13.1001 3.61364C13.0828 1.61932 11.4388 0 9.39679 0C8.4796 0 7.61434 0.323864 6.93943 0.9375C6.24722 0.323864 5.38195 0 4.46477 0C2.44005 0 0.778739 1.61932 0.778739 3.61364C0.778739 4.09091 0.882571 4.55114 1.07293 5.01136H0.432633C0.190358 5.01136 0 5.19886 0 5.4375C0 5.67614 0.190358 5.86364 0.432633 5.86364H1.60939C1.64401 5.89773 1.66131 5.94886 1.69592 5.98295L6.85291 11.8466C6.92213 11.9318 7.04326 12 7.18171 12C7.32015 12 7.44129 11.9318 7.51051 11.8295L12.1656 5.98295C12.2868 5.86364 12.3906 5.72727 12.4771 5.57386H13.5501C13.7923 5.57386 13.9827 5.38636 13.9827 5.14773C14 4.90909 13.7923 4.72159 13.5501 4.72159ZM5.01854 5.86364C5.1916 5.86364 5.34734 5.76136 5.41656 5.59091L5.93572 4.36364L6.85291 7.80682C6.90482 7.97727 7.06057 8.11364 7.28554 8.13068C7.45859 8.13068 7.61434 8.02841 7.68356 7.875L8.7738 5.55682H11.3869L7.1644 10.875L2.75155 5.86364H5.01854ZM8.08158 4.96023L7.38937 6.44318L6.45488 2.91477C6.40297 2.74432 6.24722 2.60795 6.05686 2.60795C6.03956 2.60795 6.03956 2.60795 6.02225 2.60795C5.8492 2.60795 5.69345 2.71023 5.62423 2.88068L4.72435 5.01136H2.05933C1.79975 4.58523 1.66131 4.09091 1.66131 3.61364C1.66131 2.09659 2.9246 0.869318 4.46477 0.869318C5.29543 0.869318 6.07417 1.22727 6.59333 1.84091C6.76638 2.04545 7.09518 2.02841 7.26823 1.84091C7.8047 1.22727 8.58344 0.869318 9.39679 0.869318C10.937 0.869318 12.2002 2.09659 12.2002 3.61364C12.2002 3.95455 12.1137 4.32955 11.9234 4.72159H8.4796C8.32386 4.72159 8.1508 4.82386 8.08158 4.96023Z" id="Vector"></path>
</g>
<defs>
<clipPath id="clip0_634_650">
<rect fill="white" height="12" width="14"></rect>
</clipPath>
</defs>
</svg>
