<svg xmlns="http://www.w3.org/2000/svg" viewBox="0 0 268 178" height="178" width="268">
<path d="M215.41 177.03H194.94C194.94 145.98 169.66 120.7 138.62 120.7C107.58 120.7 82.3 145.98 82.3 177.03H61.83C61.83 134.68 96.28 100.23 138.61 100.23C180.94 100.23 215.39 134.68 215.39 177.03H215.41Z"></path>
<path d="M0.191345 76.4173L11.9353 59.639L71.159 101.093L59.4151 117.871L0.191345 76.4173Z"></path>
<path d="M116.82 72.94L97.58 79.96L72.86 12.06L92.1 5.05L116.82 72.94Z"></path>
<path d="M150.588 70.7754L169.293 0.967958L189.094 6.27375L170.389 76.0812L150.588 70.7754Z"></path>
<path d="M199.299 93.6973L254.668 47.2366L267.82 62.9099L212.45 109.371L199.299 93.6973Z"></path>
</svg>
