<svg xmlns="http://www.w3.org/2000/svg" fill="none" viewBox="0 0 9 10" height="10" width="9">
<g clip-path="url(#clip0_1867_25)" id="Map Pin">
<g id="Group">
<g id="Group_2">
<path fill="#008FA1" d="M4.08068 0.609131C1.82443 0.609131 0 2.29913 0 4.38913C0 5.42913 0.453409 6.37913 1.1983 7.05913L1.94318 7.74913L4.08068 9.72913L6.52045 7.46913L7.00625 7.01913C7.71875 6.33913 8.16136 5.40913 8.16136 4.38913C8.16136 2.29913 6.33693 0.609131 4.08068 0.609131ZM4.08068 6.64913C2.73125 6.64913 1.64091 5.63913 1.64091 4.38913C1.64091 3.13913 2.73125 2.12913 4.08068 2.12913C5.43011 2.12913 6.52045 3.13913 6.52045 4.38913C6.52045 5.63913 5.43011 6.64913 4.08068 6.64913Z" id="Vector"></path>
</g>
</g>
</g>
<defs>
<clipPath id="clip0_1867_25">
<rect transform="translate(0 0.609131)" fill="white" height="9.12" width="8.16136"></rect>
</clipPath>
</defs>
</svg>
