<svg xmlns="http://www.w3.org/2000/svg" fill="none" viewBox="0 0 97 98" height="98" width="97">
<g clip-path="url(#clip0_634_502)" id="Play Button">
<path fill="white" d="M48.5014 97.9472C31.2474 97.9573 15.2681 88.7357 6.48546 73.7048C-2.15661 58.7145 -2.15661 40.19 6.48546 25.1997C20.2164 1.71904 50.1575 -6.0503 73.3637 7.84311C80.4299 12.0782 86.3318 18.0499 90.5173 25.1997C99.1594 40.19 99.1594 58.7145 90.5173 73.7048C81.7347 88.7357 65.7554 97.9573 48.5014 97.9472ZM48.5014 4.00414C32.3113 3.98383 17.3257 12.6266 9.08511 26.7333C0.985048 40.7689 0.985048 58.1356 9.08511 72.1712C21.9729 94.1996 50.0772 101.481 71.848 88.431C78.4726 84.46 84.0032 78.8742 87.9177 72.1712C96.0177 58.1356 96.0177 40.7689 87.9177 26.7333C79.6771 12.6266 64.6915 3.98383 48.5014 4.00414Z" id="Vector"></path>
<path fill="white" d="M38.2517 70.4247C37.4186 70.4247 36.7461 69.7442 36.7461 68.9013V29.7397C36.7461 28.8968 37.4186 28.2163 38.2517 28.2163C38.5126 28.2163 38.7736 28.2874 39.0045 28.4194L72.6493 48.0002C73.372 48.4166 73.6129 49.351 73.2014 50.0822C73.0709 50.3158 72.8802 50.5087 72.6493 50.6408L39.0045 70.2215C38.7736 70.3536 38.5126 70.4247 38.2517 70.4247ZM39.7573 32.3701V66.2709L68.8653 49.3205L39.7573 32.3701Z" id="Vector_2"></path>
</g>
<defs>
<clipPath id="clip0_634_502">
<rect transform="translate(0 0.947266)" fill="white" height="97" width="97"></rect>
</clipPath>
</defs>
</svg>
