<svg id="Layer_1" data-name="Layer 1" xmlns="http://www.w3.org/2000/svg" viewBox="0 0 8 10"><defs><style>.cls-1{fill:#008fa1;}.cls-2{fill:none;stroke:#008fa1;stroke-miterlimit:10;}</style></defs><path class="cls-1" d="M4,2.21A2.88,2.88,0,1,1,1.12,5.09,2.88,2.88,0,0,1,4,2.21m0-1A3.88,3.88,0,1,0,7.88,5.09,3.88,3.88,0,0,0,4,1.21Z"/><path class="cls-1" d="M4.94,2.38a2.86,2.86,0,0,1,0,5.42A3,3,0,0,0,5.88,8a2.74,2.74,0,0,0,.87-.15,3.86,3.86,0,0,0,0-5.46,2.74,2.74,0,0,0-.87-.15A3,3,0,0,0,4.94,2.38Z"/><path class="cls-1" d="M3.13,7.82a2.86,2.86,0,0,1,0-5.46,3.8,3.8,0,0,1,1.81-1A3.62,3.62,0,0,0,4,1.21,3.88,3.88,0,0,0,4,9a3.62,3.62,0,0,0,.94-.13A3.89,3.89,0,0,1,3.13,7.82Z"/><path class="cls-1" d="M3,5.09A2.88,2.88,0,0,1,4.94,2.38,2.9,2.9,0,0,0,4,2.21a2.79,2.79,0,0,0-.87.15,3.86,3.86,0,0,0,0,5.46A2.79,2.79,0,0,0,4,8a2.9,2.9,0,0,0,.94-.17A2.88,2.88,0,0,1,3,5.09Z"/><line class="cls-2" x1="0.69" y1="5.09" x2="7.04" y2="5.09"/><path class="cls-1" d="M3.06,7.8A2.9,2.9,0,0,0,4,8a2.79,2.79,0,0,0,.87-.15,3.86,3.86,0,0,0,0-5.46A2.79,2.79,0,0,0,4,2.21a2.9,2.9,0,0,0-.94.17,2.86,2.86,0,0,1,0,5.42Z"/></svg>